<?xml version="1.0" encoding="utf-8"?>
<!-- Generator: Adobe Illustrator 16.0.0, SVG Export Plug-In . SVG Version: 6.00 Build 0)  -->
<!DOCTYPE svg PUBLIC "-//W3C//DTD SVG 1.1//EN" "http://www.w3.org/Graphics/SVG/1.1/DTD/svg11.dtd">
<svg version="1.1" xmlns="http://www.w3.org/2000/svg" xmlns:xlink="http://www.w3.org/1999/xlink" x="0px" y="0px" width="350px"
	 height="436px" viewBox="0 0 350 436" enable-background="new 0 0 350 436" xml:space="preserve">
<g id="Layer_2">
	<line fill="none" stroke="#CCCCCC" stroke-width="3" x1="62.462" y1="42.585" x2="174.462" y2="108.143"/>
	<line fill="none" stroke="#CCCCCC" stroke-width="3" x1="174.462" y1="108.143" x2="281.461" y2="42.585"/>
	<line fill="none" stroke="#CCCCCC" stroke-width="3" x1="174.462" y1="108.143" x2="174.462" y2="211.143"/>
	<line fill="none" stroke="#CCCCCC" stroke-width="2" x1="33.5" y1="295.5" x2="93" y2="325"/>
	<line fill="none" stroke="#CCCCCC" stroke-width="2" x1="93" y1="325" x2="144" y2="300.5"/>
	<line fill="none" stroke="#CCCCCC" stroke-width="2" x1="144" y1="300.5" x2="138.5" y2="360.5"/>
	<line fill="none" stroke="#CCCCCC" stroke-width="2" x1="138.5" y1="360.5" x2="93" y2="325"/>
	<line fill="none" stroke="#CCCCCC" stroke-width="2" x1="93" y1="325" x2="55" y2="372.5"/>
	<g>
		<g>
			<line fill="none" stroke="#CCCCCC" stroke-width="2" x1="259.75" y1="317.75" x2="217.561" y2="297.489"/>
			<g>
				<polygon fill="#CCCCCC" points="222.619,296.157 218.094,297.745 219.684,302.271 217.089,301.024 215.5,296.5 220.024,294.911 
									"/>
			</g>
		</g>
	</g>
	<g>
		<g>
			<line fill="none" stroke="#CCCCCC" stroke-width="2" x1="252.106" y1="321.428" x2="209.917" y2="301.167"/>
			<g>
				<polygon fill="#CCCCCC" points="249.983,316.646 251.573,321.172 247.048,322.76 249.643,324.006 254.167,322.417 
					252.578,317.893 				"/>
			</g>
		</g>
	</g>
	<g>
		<g>
			<line fill="none" stroke="#CCCCCC" stroke-width="2" x1="259.416" y1="322.688" x2="231.169" y2="360.006"/>
			<g>
				<polygon fill="#CCCCCC" points="230.869,354.783 231.525,359.534 236.276,358.876 234.539,361.171 229.789,361.828 
					229.132,357.078 				"/>
			</g>
		</g>
	</g>
	<g>
		<g>
			<line fill="none" stroke="#CCCCCC" stroke-width="2" x1="258.5" y1="334.909" x2="230.253" y2="372.228"/>
			<g>
				<polygon fill="#CCCCCC" points="253.393,336.039 258.144,335.381 258.8,340.132 260.537,337.837 259.88,333.087 255.13,333.744 
									"/>
			</g>
		</g>
	</g>
	<g>
		<g>
			<line fill="none" stroke="#CCCCCC" stroke-width="2" x1="267.862" y1="320.602" x2="303.924" y2="303.283"/>
			<g>
				<polygon fill="#CCCCCC" points="301.801,308.064 303.391,303.539 298.865,301.951 301.46,300.705 305.984,302.294 
					304.396,306.818 				"/>
			</g>
		</g>
	</g>
	<g>
		<g>
			<line fill="none" stroke="#CCCCCC" stroke-width="2" x1="274.732" y1="324.572" x2="312.276" y2="306.541"/>
			<g>
				<polygon fill="#CCCCCC" points="279.791,325.903 275.266,324.316 276.855,319.791 274.261,321.037 272.672,325.562 
					277.196,327.15 				"/>
			</g>
		</g>
	</g>
	<g>
		<g>
			<line fill="none" stroke="#CCCCCC" stroke-width="2" x1="270.255" y1="326.311" x2="303.17" y2="350.977"/>
			<g>
				<polygon fill="#CCCCCC" points="297.948,351.301 302.697,350.622 302.016,345.875 304.319,347.601 304.999,352.348 
					300.252,353.027 				"/>
			</g>
		</g>
	</g>
	<g>
		<g>
			<line fill="none" stroke="#CCCCCC" stroke-width="2" x1="270.88" y1="334.239" x2="304.208" y2="359.215"/>
			<g>
				<polygon fill="#CCCCCC" points="272.034,339.341 271.353,334.594 276.102,333.915 273.798,332.188 269.051,332.868 
					269.73,337.615 				"/>
			</g>
		</g>
	</g>
</g>
<g id="Layer_1">
	<circle fill="#00A99D" cx="174.462" cy="108.143" r="28.28"/>
	<text transform="matrix(1 0 0 1 153.5381 113)" fill="#FFFFFF" font-family="'Helvetica-Bold'" font-size="14">NODE</text>
	
		<text transform="matrix(0.8642 0.5031 -0.5031 0.8642 106.8491 62.4062)" fill="#333333" font-family="'Helvetica-Bold'" font-size="14">LINK</text>
	
		<text transform="matrix(0.8515 -0.5244 0.5244 0.8515 209.041 81.3706)" fill="#333333" font-family="'Helvetica-Bold'" font-size="14">LINK</text>
	<text transform="matrix(1 -0.0026 0.0026 1 179.9883 162.9062)" fill="#333333" font-family="'Helvetica-Bold'" font-size="14">LINK</text>
	<circle fill="#00A99D" cx="174.462" cy="211.143" r="28.28"/>
	<text transform="matrix(1 0 0 1 153.5381 216)" fill="#FFFFFF" font-family="'Helvetica-Bold'" font-size="14">NODE</text>
	<text transform="matrix(1 0 0 1 28.5381 412)" fill="#1A1A1A" font-family="'Helvetica'" font-size="14">Undirected network</text>
	<text transform="matrix(1 0 0 1 206.5381 412)" fill="#1A1A1A" font-family="'Helvetica'" font-size="14">Directed network</text>
	<circle fill="#00A99D" cx="281.461" cy="42.585" r="28.28"/>
	<text transform="matrix(1 0 0 1 260.5381 47.4424)" fill="#FFFFFF" font-family="'Helvetica-Bold'" font-size="14">NODE</text>
	<circle fill="#00A99D" cx="62.462" cy="42.585" r="28.28"/>
	<circle fill="#00A99D" cx="33.903" cy="295.143" r="8.5"/>
	<circle fill="#00A99D" cx="92" cy="324" r="8.5"/>
	<circle fill="#00A99D" cx="143" cy="301" r="8.5"/>
	<circle fill="#00A99D" cx="139" cy="360" r="8.5"/>
	<circle fill="#00A99D" cx="55" cy="371" r="8.5"/>
	<circle fill="#00A99D" cx="205.902" cy="295.143" r="8.5"/>
	<circle fill="#00A99D" cx="263" cy="324" r="8.5"/>
	<circle fill="#00A99D" cx="316" cy="301" r="8.5"/>
	<circle fill="#00A99D" cx="312" cy="360" r="8.5"/>
	<circle fill="#00A99D" cx="227" cy="371" r="8.5"/>
	<text transform="matrix(1 0 0 1 41.5381 47.4424)" fill="#FFFFFF" font-family="'Helvetica-Bold'" font-size="14">NODE</text>
</g>
</svg>
